<svg width="2000" height="2000" viewBox="0 0 2000 2000" fill="none" xmlns="http://www.w3.org/2000/svg">
<g clip-path="url(#clip0_3436_14824)">
<path d="M2000 0H0V2000H2000V0Z" fill="#F8F9FA"/>
<path d="M476.89 1162.03H478.65L524.24 1262.6H502.69L498 1251.31H457.54L452.85 1262.6H433.06L476.89 1162.03ZM490.67 1234.15L483.49 1216.85C480.56 1209.81 477.48 1198.96 477.48 1198.96C477.48 1198.96 474.55 1209.81 471.62 1216.85L464.44 1234.15H490.68H490.67Z" fill="#AE2D68"/>
<path d="M574.37 1162.91H612.93C631.55 1162.91 641.96 1174.64 641.96 1188.71C641.96 1197.95 636.54 1204.25 627.89 1207.03C641.52 1210.25 648.12 1219.34 648.12 1231.81C648.12 1249.55 635.51 1262.6 614.7 1262.6H574.39V1162.91H574.37ZM610.73 1199.7C617.33 1199.7 621.73 1196.04 621.73 1190.32C621.73 1184.6 618.07 1180.94 611.76 1180.94H594.9V1199.7H610.73ZM613.81 1244.56C622.17 1244.56 627.44 1238.99 627.44 1230.78C627.44 1222.57 622.02 1217.15 612.63 1217.15H594.89V1244.56H613.8H613.81Z" fill="#AE2D68"/>
<path d="M700.44 1162.91H739C757.62 1162.91 768.03 1174.64 768.03 1188.71C768.03 1197.95 762.61 1204.25 753.96 1207.03C767.59 1210.25 774.19 1219.34 774.19 1231.81C774.19 1249.55 761.58 1262.6 740.77 1262.6H700.46V1162.91H700.44ZM736.8 1199.7C743.4 1199.7 747.79 1196.04 747.79 1190.32C747.79 1184.6 744.13 1180.94 737.82 1180.94H720.96V1199.7H736.79H736.8ZM739.87 1244.56C748.23 1244.56 753.5 1238.99 753.5 1230.78C753.5 1222.57 748.07 1217.15 738.69 1217.15H720.95V1244.56H739.86H739.87Z" fill="#AE2D68"/>
<path d="M851.87 1230.93L814.05 1162.91H836.77L854.36 1195.02C858.17 1202.06 862.42 1213.93 862.42 1213.93C862.42 1213.93 866.38 1202.2 870.19 1195.02L887.05 1162.91H908.01L872.53 1229.47V1262.6H851.86V1230.94L851.87 1230.93Z" fill="#AE2D68"/>
<path d="M1056.66 1216.27C1051.68 1211.58 1044.78 1202.64 1044.78 1202.64C1044.78 1202.64 1046.25 1213.63 1046.25 1220.82V1262.6H1027.05V1162.03H1029.1L1079.38 1209.23C1084.22 1213.78 1091.11 1222.86 1091.11 1222.86C1091.11 1222.86 1089.79 1211.57 1089.79 1204.68V1162.9H1108.99V1263.47H1106.94L1056.66 1216.27Z" fill="#AE2D68"/>
<path d="M1235.5 1162.91H1274.06C1292.68 1162.91 1303.09 1174.64 1303.09 1188.71C1303.09 1197.95 1297.67 1204.25 1289.02 1207.03C1302.65 1210.25 1309.25 1219.34 1309.25 1231.81C1309.25 1249.55 1296.64 1262.6 1275.83 1262.6H1235.52V1162.91H1235.5ZM1271.85 1199.7C1278.45 1199.7 1282.84 1196.04 1282.84 1190.32C1282.84 1184.6 1279.18 1180.94 1272.87 1180.94H1256.01V1199.7H1271.84H1271.85ZM1274.93 1244.56C1283.29 1244.56 1288.56 1238.99 1288.56 1230.78C1288.56 1222.57 1283.13 1217.15 1273.75 1217.15H1256.01V1244.56H1274.92H1274.93Z" fill="#AE2D68"/>
<path d="M1361.56 1162.91H1427.53V1180.94H1382.09V1212.61H1422.11V1230.2H1382.09V1244.57H1429.59V1262.6H1361.57V1162.91H1361.56Z" fill="#AE2D68"/>
<path d="M1475.76 1162.91H1497.75L1514.9 1201.32C1518.71 1209.82 1522.67 1223.9 1522.67 1223.9C1522.67 1223.9 1526.48 1209.97 1530.29 1201.32L1547 1162.91H1566.94L1523.25 1263.48H1521.2L1475.75 1162.91H1475.76Z" fill="#AE2D68"/>
<path d="M1132.98 874.08L1106.72 918.35C1106.25 919.6 1105.6 920.8 1104.9 921.93C1085.96 952.32 1063.94 986.07 1040.91 1012.97C1038.3 1016.01 1029.27 1024.27 1027.97 1026.7C1026.02 1030.36 1026.27 1048 1026.52 1052.9C1027.25 1067.06 1029.76 1080.6 1045.19 1085.03C1068.69 1091.78 1084.57 1062.74 1089.38 1043.9C1091.96 1033.81 1093.17 1022.91 1084.56 1015.48C1079.38 1011.01 1066.48 1005.27 1064.9 998.54C1063.92 994.38 1065.38 988.94 1068.88 986.45C1071.72 984.44 1078.08 982.69 1081.52 982.49C1094.58 981.75 1103.67 988.02 1109.62 999.11C1112.93 1005.27 1109.82 1003.49 1116.2 1007.34C1151.13 1028.42 1208.57 1042.83 1249.46 1038.24C1274.2 1035.46 1301.28 1024.45 1320.74 1008.99C1324.43 1006.06 1332.25 997.5 1336.24 996.87C1339.48 996.36 1343.54 996.76 1346.22 998.71C1346.58 998.97 1349.19 1002.14 1349.34 1002.5C1350.5 1005.18 1350.84 1010.59 1349.55 1013.22C1349.03 1014.28 1341.09 1021.83 1339.57 1023.13C1338.99 1023.62 1336.8 1024.66 1336.14 1025.2C1281.1 1069.85 1213.2 1069.68 1148.1 1046.79C1138.25 1043.33 1125.46 1034.51 1116.02 1042.9C1110.07 1048.19 1110.59 1053.26 1108.16 1059.9C1098.23 1087.09 1078.41 1109.74 1047.8 1111.66C1011.82 1113.91 1002.43 1073.04 1003.3 1044.56C1003.33 1043.63 1003.45 1042.93 1003.88 1042.11L975.24 1061.92C938.06 1083.33 895.4 1105.35 851.09 1103.41C817.84 1101.95 788.87 1089.2 768.94 1062.38C767.13 1059.95 765.65 1056.6 763.74 1054.31C759.88 1049.7 753.08 1048.92 748.12 1052.36C735.08 1071.32 707.76 1108.28 683.19 1110.59C671.65 1111.67 660.17 1104.95 655.55 1094.55C643.44 1067.31 651.26 1042.36 665.57 1018.46C682.83 989.63 711.65 965.92 743.67 955.18C751.08 952.69 763.51 947.64 769.07 955.33C774.46 962.78 768.77 970.76 767.56 978.5C764.01 1001.24 778.14 1037.47 792.85 1054.93C817 1083.61 860.24 1084.67 893.82 1074.85C935.17 1062.76 972.46 1037.57 1005.81 1011.2C1006.69 1005.89 1007.8 1000.67 1008.8 995.41C1022.12 925.67 1049.05 851.94 1085.57 791.11C1097.87 770.62 1126.01 725.33 1155.47 739.11C1181.86 751.45 1167.36 793.41 1159.95 814.11C1152.55 834.79 1142.54 854.4 1132.96 874.1L1132.98 874.08ZM1124.11 840.38C1132.11 823.52 1146.21 792.54 1148.03 774.56C1148.31 771.79 1148.94 761.07 1146.07 760.09C1138.6 757.53 1127.44 769.68 1123.33 774.7C1093.85 810.73 1066.06 877.41 1051.13 921.75C1046.51 935.48 1040.16 954.48 1037.66 968.48C1036.97 972.36 1037.71 975.45 1042.45 974.62C1051.69 962.26 1060.1 949.41 1068.56 936.52C1088.66 905.91 1108.44 873.38 1124.1 840.37L1124.11 840.38ZM753.08 976.41C752.6 976.06 743.44 979.4 742.04 980C716.64 990.84 695.27 1011.41 682.15 1035.53C673.13 1052.11 670.16 1064.49 675.21 1083.11C675.28 1083.36 678.11 1086.74 678.54 1087.06C681.37 1089.19 683.52 1088.31 686.41 1086.7C692.11 1083.52 702.61 1069.06 706.65 1063.21C722.6 1040.07 737.02 1012.97 748.76 987.27C750.38 983.73 751.96 980.1 753.09 976.42L753.08 976.41Z" fill="#AE2D68"/>
</g>
<defs>
<clipPath id="clip0_3436_14824">
<rect width="2000" height="2000" rx="1000" fill="white"/>
</clipPath>
</defs>
</svg>
