<svg width="174" height="77" viewBox="0 0 174 77" fill="none" xmlns="http://www.w3.org/2000/svg">
<g clip-path="url(#clip0_2431_40719)">
<path d="M6.73009 61.8657H7.0018L14.0036 76.3723H10.7013L9.98018 74.7419H3.75171L3.03063 76.3723H0L6.73009 61.8657ZM8.84108 72.2669L7.74378 69.7722C7.29441 68.7605 6.82414 67.1891 6.82414 67.1891C6.82414 67.1891 6.37477 68.7507 5.92541 69.7722L4.82811 72.2669H8.85153H8.84108Z" fill="#AE2D68"/>
<path d="M21.6846 61.9934H27.5996C30.4526 61.9934 32.0515 63.6827 32.0515 65.7158C32.0515 67.0516 31.2155 67.9552 29.8882 68.3578C31.9783 68.8195 32.992 70.1356 32.992 71.9329C32.992 74.4866 31.0587 76.3723 27.8609 76.3723H21.6742V61.9934H21.6846ZM27.2652 67.2971C28.2789 67.2971 28.9477 66.7667 28.9477 65.9417C28.9477 65.1167 28.3834 64.5863 27.4219 64.5863H24.8302V67.2971H27.2547H27.2652ZM27.7355 73.7696C29.0209 73.7696 29.8255 72.9642 29.8255 71.7856C29.8255 70.607 28.9895 69.8213 27.5578 69.8213H24.8407V73.7794H27.7459L27.7355 73.7696Z" fill="#AE2D68"/>
<path d="M41.0285 61.9934H46.9435C49.7964 61.9934 51.3954 63.6827 51.3954 65.7158C51.3954 67.0516 50.5593 67.9552 49.2321 68.3578C51.3222 68.8195 52.3359 70.1356 52.3359 71.9329C52.3359 74.4866 50.4026 76.3723 47.2047 76.3723H41.0181V61.9934H41.0285ZM46.6091 67.2971C47.6228 67.2971 48.2916 66.7667 48.2916 65.9417C48.2916 65.1167 47.7273 64.5863 46.7658 64.5863H44.1741V67.2971H46.5986H46.6091ZM47.0793 73.7696C48.3647 73.7696 49.1694 72.9642 49.1694 71.7856C49.1694 70.607 48.3334 69.8213 46.9017 69.8213H44.1846V73.7794H47.0898L47.0793 73.7696Z" fill="#AE2D68"/>
<path d="M64.2702 71.8053L58.4702 61.9934H61.9607L64.6569 66.6194C65.2421 67.631 65.89 69.3498 65.89 69.3498C65.89 69.3498 66.4962 67.6605 67.0814 66.6194L69.6731 61.9934H72.8918L67.4472 71.5892V76.3723H64.2702V71.8053Z" fill="#AE2D68"/>
<path d="M95.6948 69.6936C94.9319 69.0159 93.8764 67.7293 93.8764 67.7293C93.8764 67.7293 94.1063 69.3106 94.1063 70.3516V76.3821H91.1593V61.8756H91.4728L99.1852 68.682C99.9272 69.34 100.983 70.6463 100.983 70.6463C100.983 70.6463 100.784 69.0159 100.784 68.0239V61.9934H103.731V76.5H103.418L95.7052 69.6936H95.6948Z" fill="#AE2D68"/>
<path d="M123.138 61.9934H129.053C131.906 61.9934 133.504 63.6827 133.504 65.7158C133.504 67.0516 132.668 67.9552 131.341 68.3578C133.431 68.8195 134.445 70.1356 134.445 71.9329C134.445 74.4866 132.512 76.3723 129.314 76.3723H123.127V61.9934H123.138ZM128.718 67.2971C129.732 67.2971 130.401 66.7667 130.401 65.9417C130.401 65.1167 129.836 64.5863 128.875 64.5863H126.283V67.2971H128.708H128.718ZM129.188 73.7696C130.474 73.7696 131.279 72.9642 131.279 71.7856C131.279 70.607 130.443 69.8213 129.011 69.8213H126.294V73.7794H129.199L129.188 73.7696Z" fill="#AE2D68"/>
<path d="M142.481 61.9934H152.608V64.5962H145.637V69.1632H151.782V71.6972H145.637V73.7696H152.921V76.3723H142.481V61.9934Z" fill="#AE2D68"/>
<path d="M160.007 61.9934H163.382L166.016 67.5328C166.601 68.7605 167.207 70.7936 167.207 70.7936C167.207 70.7936 167.792 68.7802 168.378 67.5328L170.938 61.9934H174L167.301 76.5H166.988L160.017 61.9934H160.007Z" fill="#AE2D68"/>
<path d="M107.41 20.3398L103.376 26.7238C103.303 26.9006 103.209 27.0774 103.094 27.2444C100.188 31.6248 96.8129 36.4964 93.2702 40.3759C92.8731 40.8179 91.4832 42.0063 91.2846 42.3599C90.9816 42.8903 91.0234 45.4341 91.0652 46.1413C91.1801 48.1842 91.5668 50.1387 93.9286 50.7771C97.534 51.7494 99.969 47.5654 100.711 44.8448C101.108 43.3912 101.296 41.8197 99.969 40.7492C99.1747 40.1009 97.1996 39.2759 96.9488 38.3036C96.8025 37.7044 97.0219 36.9187 97.5549 36.5651C97.9938 36.2705 98.9657 36.0249 99.4987 35.9955C101.505 35.8874 102.895 36.791 103.815 38.392C104.327 39.2857 103.846 39.0205 104.828 39.5804C110.19 42.6251 118.999 44.6975 125.28 44.0394C129.073 43.6367 133.233 42.0554 136.222 39.8259C136.786 39.4036 137.988 38.1661 138.604 38.0777C139.106 38.0089 139.722 38.058 140.141 38.3429C140.193 38.3821 140.6 38.8339 140.621 38.8929C140.799 39.2759 140.851 40.0616 140.653 40.4349C140.569 40.592 139.357 41.6724 139.116 41.8688C139.033 41.9376 138.688 42.0849 138.594 42.1635C130.15 48.6065 119.731 48.577 109.74 45.2769C108.225 44.776 106.271 43.509 104.818 44.7171C103.909 45.4832 103.982 46.21 103.616 47.1725C102.09 51.0914 99.0493 54.362 94.3571 54.637C88.8392 54.9611 87.3971 49.0681 87.5329 44.9627C87.5329 44.8251 87.5538 44.7269 87.627 44.6091L83.2378 47.4672C77.5319 50.5512 70.9899 53.7334 64.1866 53.4486C59.0868 53.2423 54.6349 51.3958 51.5834 47.5359C51.3012 47.1823 51.0818 46.7011 50.7892 46.377C50.1935 45.7091 49.1484 45.6011 48.396 46.0921C46.3895 48.8226 42.1989 54.1557 38.4263 54.4897C36.6601 54.6468 34.894 53.6745 34.1834 52.1717C32.3232 48.2431 33.525 44.6484 35.7196 41.201C38.3636 37.0464 42.7946 33.6285 47.7063 32.0766C48.8454 31.7132 50.7474 30.9864 51.6043 32.0963C52.4299 33.1668 51.5625 34.3258 51.3744 35.4356C50.831 38.7161 52.9942 43.9412 55.2515 46.4555C58.9614 50.5905 65.5974 50.7476 70.7495 49.3333C77.0929 47.585 82.8198 43.9608 87.9301 40.15C88.0659 39.3839 88.2331 38.6277 88.3899 37.8714C90.4382 27.814 94.5661 17.1772 100.168 8.40644C102.059 5.45012 106.375 -1.08129 110.89 0.902689C114.934 2.68041 112.719 8.73055 111.579 11.7163C110.44 14.7021 108.904 17.5308 107.441 20.3692L107.41 20.3398ZM106.051 15.478C107.274 13.0423 109.448 8.57341 109.719 5.98049C109.761 5.5778 109.855 4.0358 109.416 3.8983C108.267 3.52507 106.553 5.28315 105.926 6.00995C101.401 11.2056 97.1369 20.821 94.8483 27.2149C94.1376 29.1989 93.1657 31.9391 92.7791 33.9526C92.6746 34.5124 92.7791 34.9544 93.5106 34.8365C94.9319 33.049 96.2173 31.2025 97.5131 29.3462C100.596 24.9265 103.637 20.2415 106.041 15.478H106.051ZM49.1066 35.1017C49.0335 35.0526 47.6227 35.5339 47.4137 35.6223C43.5156 37.1839 40.2342 40.15 38.2277 43.6269C36.8483 46.0234 36.3884 47.8011 37.1618 50.4922C37.1618 50.5315 37.6111 51.0128 37.6738 51.0619C38.1128 51.3664 38.4367 51.2387 38.8861 51.0128C39.7639 50.5512 41.3733 48.469 41.9899 47.6243C44.4353 44.285 46.6508 40.3759 48.4483 36.6732C48.6991 36.1624 48.9394 35.6419 49.1171 35.1115L49.1066 35.1017Z" fill="#AE2D68"/>
</g>
<defs>
<clipPath id="clip0_2431_40719">
<rect width="174" height="76" fill="white" transform="translate(0 0.5)"/>
</clipPath>
</defs>
</svg>
