<svg width="167" height="15" viewBox="0 0 167 15" fill="none" xmlns="http://www.w3.org/2000/svg">
<g clip-path="url(#clip0_1630_59701)">
<path d="M6.44 0H6.7L13.4 14.77H10.24L9.55 13.11H3.59L2.9 14.77H0L6.44 0ZM8.46 10.59L7.41 8.05C6.98 7.02 6.53 5.42 6.53 5.42C6.53 5.42 6.1 7.01 5.67 8.05L4.62 10.59H8.47H8.46Z" fill="#AE2D68"/>
<path d="M20.75 0.129883H26.41C29.14 0.129883 30.67 1.84988 30.67 3.91988C30.67 5.27988 29.87 6.19988 28.6 6.60988C30.6 7.07988 31.57 8.41988 31.57 10.2499C31.57 12.8499 29.72 14.7699 26.66 14.7699H20.74V0.129883H20.75ZM26.09 5.52988C27.06 5.52988 27.7 4.98988 27.7 4.14988C27.7 3.30988 27.16 2.76988 26.24 2.76988H23.76V5.52988H26.08H26.09ZM26.54 12.1199C27.77 12.1199 28.54 11.2999 28.54 10.0999C28.54 8.89988 27.74 8.09988 26.37 8.09988H23.77V12.1299H26.55L26.54 12.1199Z" fill="#AE2D68"/>
<path d="M39.26 0.129883H44.92C47.65 0.129883 49.18 1.84988 49.18 3.91988C49.18 5.27988 48.38 6.19988 47.11 6.60988C49.11 7.07988 50.08 8.41988 50.08 10.2499C50.08 12.8499 48.23 14.7699 45.17 14.7699H39.25V0.129883H39.26ZM44.6 5.52988C45.57 5.52988 46.21 4.98988 46.21 4.14988C46.21 3.30988 45.67 2.76988 44.75 2.76988H42.27V5.52988H44.59H44.6ZM45.05 12.1199C46.28 12.1199 47.05 11.2999 47.05 10.0999C47.05 8.89988 46.25 8.09988 44.88 8.09988H42.28V12.1299H45.06L45.05 12.1199Z" fill="#AE2D68"/>
<path d="M61.5 10.1199L55.95 0.129883H59.29L61.87 4.83988C62.43 5.86988 63.05 7.61988 63.05 7.61988C63.05 7.61988 63.63 5.89988 64.19 4.83988L66.67 0.129883H69.75L64.54 9.89988V14.7699H61.5V10.1199Z" fill="#AE2D68"/>
<path d="M91.57 7.97C90.84 7.28 89.83 5.97 89.83 5.97C89.83 5.97 90.05 7.58 90.05 8.64V14.78H87.23V0H87.53L94.91 6.93C95.62 7.6 96.63 8.93 96.63 8.93C96.63 8.93 96.44 7.27 96.44 6.26V0.13H99.26V14.9H98.96L91.58 7.97H91.57Z" fill="#AE2D68"/>
<path d="M117.83 0.129883H123.49C126.22 0.129883 127.75 1.84988 127.75 3.91988C127.75 5.27988 126.95 6.19988 125.68 6.60988C127.68 7.07988 128.65 8.41988 128.65 10.2499C128.65 12.8499 126.8 14.7699 123.74 14.7699H117.82V0.129883H117.83ZM123.17 5.52988C124.14 5.52988 124.78 4.98988 124.78 4.14988C124.78 3.30988 124.24 2.76988 123.32 2.76988H120.84V5.52988H123.16H123.17ZM123.62 12.1199C124.85 12.1199 125.62 11.2999 125.62 10.0999C125.62 8.89988 124.82 8.09988 123.45 8.09988H120.85V12.1299H123.63L123.62 12.1199Z" fill="#AE2D68"/>
<path d="M136.34 0.129883H146.03V2.77988H139.36V7.42988H145.24V10.0099H139.36V12.1199H146.33V14.7699H136.34V0.129883Z" fill="#AE2D68"/>
<path d="M153.11 0.129883H156.34L158.86 5.76988C159.42 7.01988 160 9.08988 160 9.08988C160 9.08988 160.56 7.03988 161.12 5.76988L163.57 0.129883H166.5L160.09 14.8999H159.79L153.11 0.129883Z" fill="#AE2D68"/>
</g>
<defs>
<clipPath id="clip0_1630_59701">
<rect width="166.5" height="14.9" fill="white"/>
</clipPath>
</defs>
</svg>
