<?xml version="1.0" encoding="UTF-8"?>
<svg id="Layer_1" xmlns="http://www.w3.org/2000/svg" version="1.1" viewBox="0 0 100 100">
  <!-- Generator: Adobe Illustrator 29.1.0, SVG Export Plug-In . SVG Version: 2.1.0 Build 142)  -->
  <defs>
    <style>
      .st0 {
        fill: #af2e68;
      }

      .st1 {
        fill: #f9fafb;
      }
    </style>
  </defs>
  <rect class="st0" x="0" y="0" width="100" height="100" rx="50" ry="50"/>
  <path class="st1" d="M63.15,40.42l-2.6,4.38c-.05.12-.11.24-.18.35-1.87,3-4.05,6.34-6.33,9-.26.3-1.15,1.12-1.28,1.36-.19.36-.17,2.11-.14,2.59.07,1.4.32,2.74,1.85,3.18,2.32.67,3.89-2.2,4.37-4.07.25-1,.37-2.08-.48-2.81-.51-.44-1.79-1.01-1.94-1.67-.1-.41.05-.95.39-1.19.28-.2.91-.37,1.25-.39,1.29-.07,2.19.55,2.78,1.64.33.61.02.43.65.81,3.45,2.08,9.13,3.51,13.17,3.05,2.45-.27,5.12-1.36,7.05-2.89.36-.29,1.14-1.14,1.53-1.2.32-.05.72-.01.99.18.04.03.29.34.31.37.11.27.15.8.02,1.06-.05.1-.84.85-.99.98-.06.05-.27.15-.34.2-5.44,4.41-12.15,4.4-18.59,2.13-.97-.34-2.24-1.21-3.17-.38-.59.52-.54,1.02-.78,1.68-.98,2.69-2.94,4.93-5.97,5.12-3.56.22-4.48-3.82-4.4-6.63,0-.09.01-.16.06-.24l-2.83,1.96c-3.68,2.12-7.89,4.29-12.27,4.1-3.29-.14-6.15-1.4-8.12-4.06-.18-.24-.33-.57-.51-.8-.38-.46-1.05-.53-1.54-.19-1.29,1.87-3.99,5.53-6.42,5.76-1.14.11-2.28-.56-2.73-1.59-1.2-2.69-.42-5.16.99-7.52,1.71-2.85,4.56-5.19,7.72-6.26.73-.25,1.96-.75,2.51.01s-.03,1.53-.15,2.29c-.35,2.25,1.05,5.83,2.5,7.56,2.39,2.83,6.66,2.94,9.98,1.97,4.09-1.2,7.77-3.69,11.07-6.29.09-.52.2-1.04.3-1.56,1.32-6.89,3.98-14.18,7.59-20.2,1.22-2.03,4-6.5,6.91-5.14,2.61,1.22,1.18,5.37.44,7.41s-1.72,3.98-2.67,5.93ZM62.27,37.08c.79-1.67,2.18-4.73,2.37-6.51.03-.27.09-1.33-.19-1.43-.74-.25-1.84.95-2.25,1.44-2.91,3.56-5.66,10.15-7.14,14.54-.46,1.36-1.08,3.24-1.33,4.62-.07.38,0,.69.47.61.91-1.22,1.74-2.49,2.58-3.77,1.99-3.03,3.94-6.24,5.49-9.51ZM25.59,50.53s-.95.3-1.09.35c-2.51,1.07-4.62,3.11-5.92,5.49-.89,1.64-1.19,2.86-.69,4.7,0,.02.29.36.33.39.28.21.49.12.78-.04.56-.31,1.6-1.74,2-2.32,1.58-2.29,3-4.97,4.16-7.51.16-.35.32-.71.43-1.07Z"/>
</svg>