<svg width="45" height="26" viewBox="0 0 45 26" fill="none" xmlns="http://www.w3.org/2000/svg">
<rect width="44.9838" height="26" fill="#AE2D68"/>
<path fill-rule="evenodd" clip-rule="evenodd" d="M10.2323 8.44354C9.1746 8.93405 8.59164 10.0326 8.77551 11.1894C8.91701 12.081 9.35592 12.6692 10.6472 13.6982C11.7085 14.5438 11.9932 15.3888 11.416 15.9787C11.048 16.3547 10.0327 16.2976 9.30762 15.8597C8.68993 15.4869 8.67404 15.4895 8.28216 16.0203C7.92268 16.5073 7.91569 16.5952 8.20992 16.9273C8.38892 17.1294 8.97039 17.4463 9.50187 17.6314C11.2353 18.2349 13.1013 17.3082 13.5959 15.5982C13.9308 14.4401 13.4258 13.4478 11.8854 12.2365C10.5911 11.2188 10.3 10.5818 10.8652 10.0043C11.2185 9.64319 12.3323 9.67956 12.878 10.0701C13.2998 10.3718 13.365 10.3536 13.7757 9.82004C14.1757 9.30053 14.1871 9.20918 13.8942 8.87842C13.5552 8.49549 12.2254 8.00931 11.5397 8.01753C11.3202 8.02013 10.732 8.21192 10.2323 8.44354ZM16.7998 12.8114C15.231 15.7036 14.2744 17.6875 14.3909 17.8065C14.8459 18.2715 15.7858 17.8652 16.3908 16.942L16.9939 16.022H18.5752C19.6616 16.022 20.1787 16.1066 20.227 16.2926C20.5816 17.6563 20.7072 17.8648 21.2063 17.918C21.4954 17.949 21.8547 17.8923 22.0045 17.7923C22.2771 17.6102 22.2112 17.2864 20.8527 12.1256C20.6803 11.4708 20.448 10.5454 20.3363 10.0692C20.0772 8.96435 19.7063 8.01255 19.5352 8.01342C19.4619 8.01364 18.2309 10.1729 16.7998 12.8114ZM25.1444 8.19114C25.0851 8.2892 24.9358 9.14142 24.8127 10.0852C24.6894 11.0288 24.4339 12.9698 24.245 14.3985C24.056 15.8272 23.8898 17.1909 23.8758 17.429C23.852 17.8332 24.0016 17.8661 26.1288 17.9234C28.3721 17.9838 28.4108 17.9767 28.6455 17.4502C29.0728 16.492 28.78 16.2385 27.2462 16.2385C27.1268 16.2385 27.0166 16.2402 26.915 16.2418C26.4907 16.2485 26.2171 16.2528 26.0605 16.1182C25.7763 15.8737 25.8779 15.171 26.1641 13.1923C26.2018 12.9317 26.2427 12.6489 26.2864 12.3421C26.5149 10.7348 26.7039 9.10311 26.706 8.71628C26.7098 8.05801 26.663 8.01277 25.9811 8.01277C25.5802 8.01277 25.2037 8.09308 25.1444 8.19114ZM31.6245 9.25096C31.4997 9.9391 31.3375 11.0379 31.2642 11.6927C31.1909 12.3475 30.9869 13.9279 30.8111 15.2046C30.6352 16.4816 30.5518 17.626 30.6255 17.7481C30.7047 17.8791 31.7571 17.9702 33.1878 17.9702C35.5554 17.9702 35.6219 17.957 35.8511 17.4429C36.297 16.4426 36.0015 16.2385 34.1067 16.2385H32.3814L32.532 15.2103C32.6148 14.6448 32.7264 14.1089 32.7802 14.0197C32.834 13.9305 33.5286 13.8573 34.3236 13.8573C35.6437 13.8573 35.7804 13.8151 35.8971 13.3703C36.1553 12.3854 36.0985 12.3421 34.5477 12.3421H33.0649L33.0679 11.5303C33.0738 9.82459 33.1526 9.74493 34.8373 9.74125C36.6002 9.73735 36.8785 9.60639 36.9391 8.75243L36.9838 8.121L34.4177 8.06039L31.8516 8L31.6245 9.25096ZM18.3864 13.1058C18.0712 13.7625 17.8132 14.3463 17.8132 14.4033C17.8132 14.4602 18.2422 14.5067 18.7664 14.5067C19.2907 14.5067 19.7197 14.4524 19.7197 14.3862C19.7197 14.0699 19.2219 12.2148 19.099 12.0728C19.0221 11.9841 18.7016 12.449 18.3864 13.1058Z" fill="#F6F6F6"/>
</svg>
