<svg width="103" height="56" viewBox="0 0 103 56" fill="none" xmlns="http://www.w3.org/2000/svg">
<g clip-path="url(#clip0_1622_59698)">
<path d="M70.98 20.2L67.12 26.7C67.05 26.88 66.96 27.06 66.85 27.23C64.07 31.69 60.84 36.65 57.45 40.6C57.07 41.05 55.74 42.26 55.55 42.62C55.26 43.16 55.3 45.75 55.34 46.47C55.45 48.55 55.82 50.54 58.08 51.19C61.53 52.18 63.86 47.92 64.57 45.15C64.95 43.67 65.13 42.07 63.86 40.98C63.1 40.32 61.21 39.48 60.97 38.49C60.83 37.88 61.04 37.08 61.55 36.72C61.97 36.42 62.9 36.17 63.41 36.14C65.33 36.03 66.66 36.95 67.54 38.58C68.03 39.49 67.57 39.22 68.51 39.79C73.64 42.89 82.07 45 88.08 44.33C91.71 43.92 95.69 42.31 98.55 40.04C99.09 39.61 100.24 38.35 100.83 38.26C101.31 38.19 101.9 38.24 102.3 38.53C102.35 38.57 102.74 39.03 102.76 39.09C102.93 39.48 102.98 40.28 102.79 40.66C102.71 40.82 101.55 41.92 101.32 42.12C101.24 42.19 100.91 42.34 100.82 42.42C92.74 48.98 82.77 48.95 73.21 45.59C71.76 45.08 69.89 43.79 68.5 45.02C67.63 45.8 67.7 46.54 67.35 47.52C65.89 51.51 62.98 54.84 58.49 55.12C53.21 55.45 51.83 49.45 51.96 45.27C51.96 45.13 51.98 45.03 52.05 44.91L47.85 47.82C42.39 50.96 36.13 54.2 29.62 53.91C24.74 53.7 20.48 51.82 17.56 47.89C17.29 47.53 17.08 47.04 16.8 46.71C16.23 46.03 15.23 45.92 14.51 46.42C12.59 49.2 8.58001 54.63 4.97001 54.97C3.28001 55.13 1.59001 54.14 0.910012 52.61C-0.869988 48.61 0.280012 44.95 2.38001 41.44C4.91001 37.21 9.15001 33.73 13.85 32.15C14.94 31.78 16.76 31.04 17.58 32.17C18.37 33.26 17.54 34.44 17.36 35.57C16.84 38.91 18.91 44.23 21.07 46.79C24.62 51 30.97 51.16 35.9 49.72C41.97 47.94 47.45 44.25 52.34 40.37C52.47 39.59 52.63 38.82 52.78 38.05C54.74 27.81 58.69 16.98 64.05 8.05002C65.86 5.04002 69.99 -1.60998 74.31 0.410017C78.18 2.22002 76.06 8.38002 74.97 11.42C73.88 14.46 72.41 17.34 71.01 20.23L70.98 20.2ZM69.68 15.25C70.85 12.77 72.93 8.22002 73.19 5.58002C73.23 5.17002 73.32 3.60002 72.9 3.46002C71.8 3.08002 70.16 4.87002 69.56 5.61002C65.23 10.9 61.15 20.69 58.96 27.2C58.28 29.22 57.35 32.01 56.98 34.06C56.88 34.63 56.98 35.08 57.68 34.96C59.04 33.14 60.27 31.26 61.51 29.37C64.46 24.87 67.37 20.1 69.67 15.25H69.68ZM15.19 35.23C15.12 35.18 13.77 35.67 13.57 35.76C9.84001 37.35 6.70001 40.37 4.78001 43.91C3.46001 46.35 3.02001 48.16 3.76001 50.9C3.76001 50.94 4.19001 51.43 4.25001 51.48C4.67001 51.79 4.98001 51.66 5.41001 51.43C6.25001 50.96 7.79001 48.84 8.38001 47.98C10.72 44.58 12.84 40.6 14.56 36.83C14.8 36.31 15.03 35.78 15.2 35.24L15.19 35.23Z" fill="#AE2D68"/>
</g>
<defs>
<clipPath id="clip0_1622_59698">
<rect width="102.91" height="55.1" fill="white"/>
</clipPath>
</defs>
</svg>
