<svg width="964" height="499" viewBox="0 0 964 499" fill="none" xmlns="http://www.w3.org/2000/svg">
<path d="M661.588 154.993L626.211 214.658C625.57 216.31 624.745 217.962 623.737 219.523C598.258 260.462 568.656 305.99 537.587 342.248C534.104 346.378 521.915 357.485 520.174 360.789C517.516 365.746 517.882 389.52 518.249 396.129C519.257 415.222 522.648 433.488 543.361 439.454C574.98 448.542 596.334 409.439 602.841 384.013C606.324 370.427 607.973 355.741 596.334 345.736C589.368 339.677 572.047 331.967 569.847 322.88C568.564 317.28 570.489 309.937 575.163 306.633C579.012 303.879 587.536 301.584 592.21 301.309C609.806 300.299 621.996 308.744 630.061 323.706C634.551 332.059 630.336 329.58 638.951 334.812C685.966 363.268 763.226 382.636 818.307 376.486C851.576 372.722 888.052 357.944 914.264 337.107C919.213 333.16 929.752 321.595 935.16 320.768C939.559 320.126 944.966 320.585 948.632 323.247C949.09 323.614 952.665 327.836 952.848 328.387C954.406 331.967 954.864 339.31 953.123 342.798C952.39 344.267 941.758 354.364 939.65 356.2C938.917 356.842 935.893 358.219 935.068 358.954C861.016 419.169 769.642 418.893 682.026 388.051C668.736 383.37 651.598 371.529 638.859 382.819C630.885 389.979 631.527 396.772 628.319 405.767C614.939 442.392 588.269 472.958 547.118 475.528C498.728 478.558 486.08 423.483 487.272 385.114C487.272 383.829 487.455 382.911 488.096 381.81L449.604 408.521C399.564 437.343 342.192 467.084 282.528 464.422C237.804 462.494 198.761 445.237 172 409.163C169.525 405.859 167.6 401.361 165.034 398.332C159.81 392.09 150.645 391.081 144.047 395.67C126.45 421.188 89.699 471.031 56.6138 474.152C41.1251 475.62 25.6364 466.533 19.4043 452.489C3.09083 415.772 13.6304 382.177 32.8767 349.958C56.0639 311.13 94.923 279.187 137.998 264.684C147.988 261.288 164.668 254.495 172.183 264.868C179.423 274.873 171.816 285.704 170.167 296.077C165.401 326.735 184.372 375.568 204.168 399.066C236.704 437.71 294.901 439.179 340.084 425.961C395.715 409.622 445.938 375.751 490.754 340.136C491.946 332.977 493.412 325.909 494.787 318.841C512.75 224.847 548.951 125.437 598.075 43.4671C614.664 15.8379 652.515 -45.2033 692.107 -26.6614C727.575 -10.0472 708.145 46.4962 698.156 74.4007C688.166 102.305 674.694 128.741 661.863 155.269L661.588 154.993ZM649.673 109.557C660.396 86.7925 679.459 45.0275 681.842 20.7946C682.209 17.0312 683.034 2.61997 679.184 1.33489C669.103 -2.15318 654.073 14.2775 648.574 21.07C608.89 69.6276 571.497 159.491 551.426 219.247C545.194 237.789 536.67 263.399 533.279 282.216C532.363 287.448 533.279 291.579 539.695 290.477C552.159 273.771 563.432 256.515 574.796 239.166C601.833 197.86 628.503 154.076 649.582 109.557H649.673ZM150.279 292.956C149.637 292.497 137.265 296.994 135.432 297.821C101.247 312.415 72.469 340.136 54.8724 372.63C42.7748 395.028 38.7422 411.642 45.5242 436.793C45.5242 437.16 49.4651 441.658 50.015 442.116C53.8643 444.962 56.7054 443.769 60.6463 441.658C68.3448 437.343 82.4587 417.884 87.866 409.99C109.312 378.78 128.741 342.248 144.505 307.642C146.705 302.869 148.812 298.004 150.371 293.047L150.279 292.956Z" fill="#F6D4E8"/>
</svg>
