<svg width="94" height="26" viewBox="0 0 94 26" fill="none" xmlns="http://www.w3.org/2000/svg">
<path d="M0.5 0H93.5V16C93.5 21.5228 89.0229 26 83.5 26H0.5V0Z" fill="#AE2D68"/>
<path fill-rule="evenodd" clip-rule="evenodd" d="M15.3209 9.25096C15.1961 9.9391 15.0339 11.0379 14.9606 11.6927C14.8873 12.3475 14.6814 13.9407 14.5035 15.2332C14.1503 17.7944 14.2154 18.0486 15.193 17.933C15.838 17.8568 15.9433 17.5925 16.2314 15.328L16.3608 14.3095L17.7771 14.2457C19.0866 14.1868 19.2143 14.137 19.4721 13.5859C19.6255 13.258 19.6922 12.8928 19.6204 12.7742C19.5488 12.6555 18.8449 12.5586 18.0565 12.5586H16.6228L16.7014 11.855C16.7446 11.4682 16.8277 10.8348 16.8861 10.448L16.9925 9.7445L18.5185 9.74125C20.2968 9.73735 20.5749 9.60747 20.6355 8.75243L20.6802 8.121L18.1141 8.06039L15.548 8L15.3209 9.25096ZM22.8216 8.19114C22.7623 8.2892 22.6129 9.14142 22.4899 10.0852C22.3666 11.0288 22.1111 12.9698 21.9221 14.3985C21.7332 15.8272 21.5669 17.1909 21.5529 17.429C21.5292 17.8332 21.6788 17.8661 23.8059 17.9234C26.0492 17.9838 26.088 17.9767 26.3227 17.4502C26.75 16.492 26.4572 16.2385 24.9233 16.2385C24.804 16.2385 24.6937 16.2402 24.5921 16.2418C24.1678 16.2485 23.8942 16.2528 23.7377 16.1182C23.4534 15.8737 23.5551 15.171 23.8413 13.1923C23.879 12.9317 23.9199 12.6489 23.9636 12.3421C24.1921 10.7348 24.3811 9.10311 24.3832 8.71628C24.387 8.05801 24.3402 8.01277 23.6583 8.01277C23.2573 8.01277 22.8809 8.09308 22.8216 8.19114ZM31.5293 8.9111C29.0381 13.3671 26.9395 17.4693 27.0294 17.7081C27.0974 17.8892 27.3956 17.9724 27.8254 17.9299C28.3855 17.8745 28.6041 17.692 29.0076 16.942L29.5029 16.022H31.081C32.6113 16.022 32.6653 16.04 32.8655 16.6173C33.226 17.6568 33.4211 17.862 34.0485 17.862C34.5008 17.862 34.676 17.7488 34.7179 17.429C34.7876 16.9015 32.5486 8.47341 32.2607 8.17923C32.1285 8.04416 31.8686 8.30413 31.5293 8.9111ZM38.4129 8.44354C37.3552 8.93405 36.7722 10.0326 36.9561 11.1894C37.0976 12.081 37.5365 12.6692 38.8278 13.6982C39.8891 14.5438 40.1738 15.3888 39.5966 15.9787C39.2286 16.3547 38.2133 16.2976 37.4882 15.8597C36.8705 15.4869 36.8546 15.4895 36.4628 16.0203C36.1033 16.5073 36.0963 16.5952 36.3905 16.9273C36.5695 17.1294 37.151 17.4463 37.6825 17.6314C39.4159 18.2349 41.2819 17.3082 41.7765 15.5982C42.1114 14.4401 41.6064 13.4478 40.066 12.2365C38.7717 11.2188 38.4806 10.5818 39.0458 10.0043C39.3991 9.64319 40.5129 9.67956 41.0586 10.0701C41.4804 10.3718 41.5456 10.3536 41.9563 9.82004C42.3563 9.30053 42.3677 9.20918 42.0748 8.87842C41.7358 8.49549 40.406 8.00931 39.7203 8.01753C39.5008 8.02013 38.9126 8.21192 38.4129 8.44354ZM45.0637 8.19114C45.0044 8.2892 44.8561 9.14142 44.7343 10.0852C44.6123 11.0288 44.3579 12.9698 44.1685 14.3985C44.141 14.606 44.115 14.801 44.0906 14.9844C43.8075 17.1086 43.733 17.6677 43.9516 17.8345C44.0297 17.8941 44.1452 17.9036 44.302 17.9164C44.3399 17.9195 44.3803 17.9229 44.4231 17.9271C45.2836 18.0128 45.5276 17.6667 45.7002 16.1159L45.7014 16.1052C45.8361 14.8954 45.8992 14.3287 46.2115 14.0742C46.4865 13.85 46.955 13.8681 47.836 13.902L47.8454 13.9024L49.489 13.9656L49.3947 15.1561C49.1867 17.7814 49.2018 17.8546 49.9671 17.9299C50.395 17.9721 50.6958 17.8899 50.7589 17.7135C50.9188 17.2678 51.9608 9.71159 52.007 8.66217C52.028 8.19027 51.9318 8.11256 51.2561 8.05498L51.2489 8.05437C50.9527 8.02913 50.7617 8.01285 50.626 8.09261C50.3795 8.23742 50.3152 8.69883 50.1341 9.99802L50.1317 10.0151C50.0694 10.4616 49.9658 11.1717 49.9014 11.5931L49.7845 12.3592L48.0479 12.2966C47.0438 12.2603 46.3251 12.1425 46.3438 12.0174C46.3615 11.8983 46.4444 10.9487 46.5278 9.90685L46.6795 8.01277H45.9254C45.5108 8.01277 45.123 8.09308 45.0637 8.19114ZM58.7485 8.44354C57.6908 8.93405 57.1079 10.0326 57.2917 11.1894C57.4332 12.081 57.8721 12.6692 59.1635 13.6982C60.2247 14.5438 60.5094 15.3888 59.9322 15.9787C59.5642 16.3547 58.5489 16.2976 57.8238 15.8597C57.2062 15.4869 57.1903 15.4895 56.7984 16.0203C56.4389 16.5073 56.4319 16.5952 56.7262 16.9273C56.9051 17.1294 57.4866 17.4463 58.0181 17.6314C59.7515 18.2349 61.6175 17.3082 62.1121 15.5982C62.447 14.4401 61.942 13.4478 60.4016 12.2365C59.1073 11.2188 58.8163 10.5818 59.3814 10.0043C59.7348 9.64319 60.8486 9.67956 61.3942 10.0701C61.816 10.3718 61.8812 10.3536 62.292 9.82004C62.6919 9.30053 62.7033 9.20918 62.4104 8.87842C62.0715 8.49549 60.7416 8.00931 60.0559 8.01753C59.8364 8.02013 59.2482 8.21192 58.7485 8.44354ZM65.316 12.8114C63.7472 15.7036 62.7906 17.6875 62.9071 17.8065C63.3621 18.2715 64.302 17.8652 64.907 16.942L65.5101 16.022H67.0914C68.1779 16.022 68.6949 16.1066 68.7432 16.2926C69.0978 17.6563 69.2234 17.8648 69.7225 17.918C70.0117 17.949 70.3709 17.8923 70.5207 17.7923C70.7933 17.6102 70.7274 17.2864 69.369 12.1256C69.1965 11.4708 68.9642 10.5454 68.8525 10.0692C68.5935 8.96435 68.2226 8.01255 68.0514 8.01342C67.9781 8.01364 66.7472 10.1729 65.316 12.8114ZM73.6607 8.19114C73.6013 8.2892 73.452 9.14142 73.3289 10.0852C73.2056 11.0288 72.9502 12.9698 72.7612 14.3985C72.5723 15.8272 72.406 17.1909 72.392 17.429C72.3683 17.8332 72.5178 17.8661 74.645 17.9234C76.8883 17.9838 76.927 17.9767 77.1618 17.4502C77.589 16.492 77.2963 16.2385 75.7624 16.2385C75.6431 16.2385 75.5328 16.2402 75.4312 16.2418C75.0069 16.2485 74.7333 16.2528 74.5768 16.1182C74.2925 15.8737 74.3941 15.171 74.6804 13.1923C74.7181 12.9317 74.759 12.6489 74.8026 12.3421C75.0312 10.7348 75.2201 9.10311 75.2223 8.71628C75.2261 8.05801 75.1793 8.01277 74.4974 8.01277C74.0964 8.01277 73.72 8.09308 73.6607 8.19114ZM80.1407 9.25096C80.016 9.9391 79.8537 11.0379 79.7804 11.6927C79.7071 12.3475 79.5031 13.9279 79.3273 15.2046C79.1515 16.4816 79.068 17.626 79.1417 17.7481C79.221 17.8791 80.2733 17.9702 81.704 17.9702C84.0716 17.9702 84.1382 17.957 84.3674 17.4429C84.8133 16.4426 84.5177 16.2385 82.6229 16.2385H80.8976L81.0482 15.2103C81.131 14.6448 81.2427 14.1089 81.2965 14.0197C81.3503 13.9305 82.0448 13.8573 82.8398 13.8573C84.16 13.8573 84.2966 13.8151 84.4133 13.3703C84.6715 12.3854 84.6148 12.3421 83.064 12.3421H81.5812L81.5841 11.5303C81.5901 9.82459 81.6689 9.74493 83.3535 9.74125C85.1164 9.73735 85.3947 9.60639 85.4553 8.75243L85.5 8.121L82.9339 8.06039L80.3678 8L80.1407 9.25096ZM9.29436 10.7991C8.85757 12.0921 8.5 13.2116 8.5 13.2872C8.5 13.3627 8.92895 13.4244 9.45323 13.4244C10.5791 13.4244 10.5793 13.4253 9.96522 15.7129C9.72247 16.6171 9.55999 17.3937 9.60427 17.439C9.69048 17.5273 12.529 12.749 12.7828 12.0886C12.9177 11.7371 12.8158 11.6927 11.8727 11.6927H10.8106L11.6774 10.0692L12.5442 8.4457L11.3165 8.447L10.0887 8.4483L9.29436 10.7991ZM30.9736 13.1681L30.3123 14.5067H31.2926H32.273L32.123 13.4785C31.868 11.7323 31.7046 11.6881 30.9736 13.1681ZM66.9026 13.1058C66.5874 13.7625 66.3294 14.3463 66.3294 14.4033C66.3294 14.4602 66.7584 14.5067 67.2827 14.5067C67.8069 14.5067 68.2359 14.4524 68.2359 14.3862C68.2359 14.0699 67.7381 12.2148 67.6152 12.0728C67.5383 11.9841 67.2179 12.449 66.9026 13.1058Z" fill="#F6F6F6"/>
</svg>
